<svg xmlns="http://www.w3.org/2000/svg" aria-hidden="true" style="width:0;height:0;position:absolute;overflow:hidden"><defs><symbol id="icon-arrow-left" viewBox="0 0 32 32"><path fill="none" stroke="#000" stroke-linecap="round" stroke-linejoin="round" stroke-width="2.666" d="M25.334 16H6.666M16 25.334 6.666 16 16 6.666"/></symbol><symbol id="icon-arrow-right" viewBox="0 0 32 32"><path fill="none" stroke="#000" stroke-linecap="round" stroke-linejoin="round" stroke-width="2.666" d="M6.666 16h18.668M16 25.334 25.334 16 16 6.666"/></symbol><symbol id="icon-close" viewBox="0 0 32 32"><path fill="none" stroke="#000" stroke-width="2.133" d="m8.533 8.533 14.933 14.933m-14.933.001L23.466 8.534"/></symbol><symbol id="icon-film" viewBox="0 0 32 32"><path fill="none" stroke="#fff" stroke-linecap="round" stroke-linejoin="round" stroke-width="2.667" d="M26.427 2.667H5.574a2.907 2.907 0 0 0-2.907 2.907v20.853a2.907 2.907 0 0 0 2.907 2.907v0h20.853a2.907 2.907 0 0 0 2.907-2.907v0V5.574a2.907 2.907 0 0 0-2.907-2.907v0zm-17.094 0v26.667M22.667 2.667v26.667M2.667 16h26.667M2.667 9.333h6.667M2.667 22.667h6.667m13.333 0h6.667M22.667 9.333h6.667" style="stroke:var(--color1,#fff)"/></symbol><symbol id="icon-heart" viewBox="0 0 32 32"><path fill="#ff6b08" d="m16 30.583-2.24-2.24C5.44 20.983 0 16.023 0 9.943c0-4.96 3.84-8.8 8.8-8.8 2.72 0 5.44 1.28 7.2 3.36 1.76-2.08 4.48-3.36 7.2-3.36 4.96 0 8.8 3.84 8.8 8.8 0 6.08-5.44 11.04-13.76 18.4L16 30.583z" style="fill:var(--color2,#ff6b08)"/></symbol><symbol id="icon-search" viewBox="0 0 32 32"><path fill="none" stroke-linecap="round" stroke-linejoin="round" stroke-width="2.667" d="M14.667 25.333c5.891 0 10.667-4.776 10.667-10.667S20.558 3.999 14.667 3.999 4 8.775 4 14.666s4.776 10.667 10.667 10.667zM28 28l-5.8-5.8"/></symbol><symbol id="icon-moon" viewBox="0 0 32 32"><path d="m22.518 11.443-2.782.587 1.905 2.11-.301 2.827 2.595-1.16 2.595 1.16-.301-2.827 1.905-2.11-2.782-.587-1.418-2.464zM30.945 22.905l-1.822-.385-.929-1.614-.929 1.614-1.822.385 1.248 1.382-.197 1.852 1.7-.76 1.7.76-.198-1.852z"/><path d="M15.332 16c0-6.271 3.608-11.698 8.862-14.322A15.935 15.935 0 0 0 17.056 0c-8.837 0-16 7.163-16 16s7.163 16 16 16c2.566 0 4.989-.605 7.138-1.678-5.253-2.623-8.862-8.051-8.862-14.322z"/></symbol><symbol id="icon-sun" viewBox="0 0 32 32"><path d="M16 7.885c-4.474 0-8.115 3.64-8.115 8.115s3.64 8.115 8.115 8.115 8.115-3.64 8.115-8.115c0-4.474-3.64-8.115-8.115-8.115z"/><path d="m28.089 16 2.972-3.993a1.05 1.05 0 0 0-.529-1.629l-4.751-1.484.057-4.977a1.048 1.048 0 0 0-1.386-1.006l-4.716 1.592-2.88-4.06a1.048 1.048 0 0 0-1.712 0l-2.88 4.06-4.716-1.592a1.05 1.05 0 0 0-1.386 1.006l.057 4.977-4.751 1.484a1.05 1.05 0 0 0-.529 1.629L3.911 16 .939 19.993a1.05 1.05 0 0 0 .529 1.629l4.751 1.484-.057 4.977a1.048 1.048 0 0 0 1.386 1.006l4.716-1.592 2.88 4.06a1.05 1.05 0 0 0 1.712 0l2.88-4.06 4.716 1.592a1.05 1.05 0 0 0 1.386-1.006l-.057-4.977 4.751-1.484a1.05 1.05 0 0 0 .529-1.629L28.089 16zM16 26.214c-5.632 0-10.214-4.582-10.214-10.214S10.368 5.786 16 5.786 26.214 10.368 26.214 16 21.632 26.214 16 26.214z"/></symbol></defs></svg>