<svg xmlns="http://www.w3.org/2000/svg" aria-hidden="true" style="position:absolute;width:0;height:0;overflow:hidden"><defs>
<symbol id="icon-arrow-left" viewBox="0 0 32 32"><path fill="none" stroke="#000" stroke-linecap="round" stroke-linejoin="round" stroke-width="2.666" d="M25.334 16H6.666M16 25.334 6.666 16 16 6.666"/></symbol>
<symbol id="icon-arrow-right" viewBox="0 0 32 32"><path fill="none" stroke="#000" stroke-linecap="round" stroke-linejoin="round" stroke-width="2.666" d="M6.666 16h18.668M16 25.334 25.334 16 16 6.666"/></symbol>
<symbol id="icon-close" viewBox="0 0 32 32"><path fill="none" stroke="#000" stroke-width="2.133" d="m8.533 8.533 14.933 14.933m-14.933.001L23.466 8.534"/></symbol>
<symbol id="icon-film" viewBox="0 0 32 32"><path fill="none" stroke="#fff" stroke-linecap="round" stroke-linejoin="round" stroke-width="2.667" d="M26.427 2.667H5.574a2.907 2.907 0 0 0-2.907 2.907v20.853a2.907 2.907 0 0 0 2.907 2.907v0h20.853a2.907 2.907 0 0 0 2.907-2.907v0V5.574a2.907 2.907 0 0 0-2.907-2.907v0zm-17.094 0v26.667M22.667 2.667v26.667M2.667 16h26.667M2.667 9.333h6.667M2.667 22.667h6.667m13.333 0h6.667M22.667 9.333h6.667" style="stroke:var(--color1, #fff)"/></symbol>
<symbol id="icon-heart" viewBox="0 0 32 32"><path fill="#ff6b08" d="m16 30.583-2.24-2.24C5.44 20.983 0 16.023 0 9.943c0-4.96 3.84-8.8 8.8-8.8 2.72 0 5.44 1.28 7.2 3.36 1.76-2.08 4.48-3.36 7.2-3.36 4.96 0 8.8 3.84 8.8 8.8 0 6.08-5.44 11.04-13.76 18.4L16 30.583z" style="fill:var(--color2, #ff6b08)"/></symbol>
<symbol id="icon-search" viewBox="0 0 32 32"><path fill="none" stroke-linecap="round" stroke-linejoin="round" stroke-width="2.667" d="M14.667 25.333c5.891 0 10.667-4.776 10.667-10.667S20.558 3.999 14.667 3.999v0C8.776 3.999 4 8.775 4 14.666s4.776 10.667 10.667 10.667v0zM28 28l-5.8-5.8"/></symbol>
<symbol id="icon-moon" viewBox="0 0 32 32"><path d="M22.518 11.443l-2.782 0.587 1.905 2.11-0.301 2.827 2.595-1.16 2.595 1.16-0.301-2.827 1.905-2.11-2.782-0.587-1.418-2.464z"></path><path d="M30.945 22.905l-1.822-0.385-0.929-1.614-0.929 1.614-1.822 0.385 1.248 1.382-0.197 1.852 1.7-0.76 1.7 0.76-0.198-1.852z"></path><path d="M15.332 16c0-6.271 3.608-11.698 8.862-14.322-2.149-1.073-4.573-1.678-7.138-1.678-8.837 0-16 7.163-16 16s7.163 16 16 16c2.566 0 4.989-0.605 7.138-1.678-5.253-2.623-8.862-8.051-8.862-14.322z"></path></symbol>
<symbol id="icon-sun" viewBox="0 0 32 32"><path d="M16 7.885c-4.474 0-8.115 3.64-8.115 8.115s3.64 8.115 8.115 8.115 8.115-3.64 8.115-8.115c0-4.474-3.64-8.115-8.115-8.115z"></path><path d="M28.089 16l2.972-3.993c0.203-0.273 0.261-0.627 0.156-0.951s-0.361-0.576-0.685-0.678l-4.751-1.484 0.057-4.977c0.004-0.34-0.157-0.661-0.433-0.861s-0.63-0.254-0.953-0.145l-4.716 1.592-2.88-4.060c-0.197-0.278-0.516-0.442-0.856-0.442s-0.659 0.165-0.856 0.442l-2.88 4.060-4.716-1.592c-0.322-0.109-0.677-0.055-0.953 0.145s-0.436 0.521-0.433 0.861l0.057 4.977-4.751 1.484c-0.325 0.101-0.58 0.354-0.685 0.678s-0.047 0.678 0.156 0.951l2.972 3.993-2.972 3.993c-0.203 0.273-0.261 0.627-0.156 0.951s0.361 0.576 0.685 0.678l4.751 1.484-0.057 4.977c-0.004 0.34 0.157 0.661 0.433 0.861s0.63 0.254 0.953 0.145l4.716-1.592 2.88 4.060c0.197 0.277 0.516 0.442 0.856 0.442s0.659-0.165 0.856-0.442l2.88-4.060 4.716 1.592c0.322 0.109 0.677 0.055 0.953-0.145s0.436-0.521 0.433-0.861l-0.057-4.977 4.751-1.484c0.325-0.101 0.58-0.354 0.685-0.678s0.047-0.678-0.156-0.951l-2.972-3.993zM16 26.214c-5.632 0-10.214-4.582-10.214-10.214s4.582-10.214 10.214-10.214 10.214 4.582 10.214 10.214-4.582 10.214-10.214 10.214z"></path>
</symbol></defs></svg>

